# xmcd CD database file
#
# Track frame offsets:
#	150
#	20633
#	60369
#	66347
#	95879
#	113730
#	146255
#	162236
#	176972
#	182963
#	205678
#
# Disc length: 2870 seconds
#
# Revision: 0
# Processed by: cddbd v1.5.2PL0 Copyright (c) Steve Scherf et al.
# Submitted via: CDex 1.70beta2
#
DISCID=9e0b340b
DTITLE=Eric Schaefer and Demontage (Daniel Erdmann, Michael Thieke, Michael Anderson, Johannes Fink) - unknown
DYEAR=2001
DGENRE=Jazz
TTITLE0=DinA3
TTITLE1=Pose Nude
TTITLE2=Jerry
TTITLE3=Le Binz
TTITLE4=Groschenotto
TTITLE5=Flyjam
TTITLE6=Kammerflimmern
TTITLE7=Könnt' ich sie trinken, ich wollt' an ihr ersticken
TTITLE8=Ladenball
TTITLE9=bonus1
TTITLE10=bonus2
EXTD=YEAR: 2001
EXTT0=
EXTT1=
EXTT2=
EXTT3=
EXTT4=
EXTT5=
EXTT6=
EXTT7=
EXTT8=
EXTT9=
EXTT10=
PLAYORDER=
